<mxfile host="app.diagrams.net" modified="2024-02-28T11:52:37.627Z" agent="Mozilla/5.0 (Windows NT 10.0; Win64; x64) AppleWebKit/537.36 (KHTML, like Gecko) Chrome/119.0.0.0 Safari/537.36" etag="9LL58FCkheAYJVqbxLWS" version="22.1.21" type="github">
  <diagram name="第 1 页" id="TNA9gT4A6TuleUocX4Qi">
    <mxGraphModel dx="1221" dy="724" grid="0" gridSize="10" guides="1" tooltips="1" connect="1" arrows="1" fold="1" page="1" pageScale="1" pageWidth="827" pageHeight="1169" math="0" shadow="0">
      <root>
        <mxCell id="0" />
        <mxCell id="1" parent="0" />
        <mxCell id="CuhgKTcSQCLsUfkfb_bn-10" style="rounded=0;orthogonalLoop=1;jettySize=auto;html=1;exitX=0.5;exitY=1;exitDx=0;exitDy=0;entryX=0;entryY=0;entryDx=0;entryDy=0;startArrow=classic;startFill=1;" edge="1" parent="1" source="CuhgKTcSQCLsUfkfb_bn-1" target="CuhgKTcSQCLsUfkfb_bn-3">
          <mxGeometry relative="1" as="geometry" />
        </mxCell>
        <mxCell id="CuhgKTcSQCLsUfkfb_bn-12" style="edgeStyle=orthogonalEdgeStyle;rounded=0;orthogonalLoop=1;jettySize=auto;html=1;exitX=1;exitY=0.5;exitDx=0;exitDy=0;entryX=0;entryY=0.5;entryDx=0;entryDy=0;startArrow=classic;startFill=1;" edge="1" parent="1" source="CuhgKTcSQCLsUfkfb_bn-1" target="CuhgKTcSQCLsUfkfb_bn-2">
          <mxGeometry relative="1" as="geometry" />
        </mxCell>
        <mxCell id="CuhgKTcSQCLsUfkfb_bn-1" value="&lt;font style=&quot;font-size: 18px;&quot;&gt;用户&lt;/font&gt;" style="ellipse;whiteSpace=wrap;html=1;aspect=fixed;" vertex="1" parent="1">
          <mxGeometry x="131" y="252" width="80" height="80" as="geometry" />
        </mxCell>
        <mxCell id="CuhgKTcSQCLsUfkfb_bn-11" style="rounded=0;orthogonalLoop=1;jettySize=auto;html=1;exitX=0.5;exitY=1;exitDx=0;exitDy=0;entryX=1;entryY=0;entryDx=0;entryDy=0;startArrow=classic;startFill=1;" edge="1" parent="1" source="CuhgKTcSQCLsUfkfb_bn-2" target="CuhgKTcSQCLsUfkfb_bn-3">
          <mxGeometry relative="1" as="geometry" />
        </mxCell>
        <mxCell id="CuhgKTcSQCLsUfkfb_bn-17" style="edgeStyle=orthogonalEdgeStyle;rounded=0;orthogonalLoop=1;jettySize=auto;html=1;exitX=1;exitY=0.5;exitDx=0;exitDy=0;entryX=0;entryY=0.5;entryDx=0;entryDy=0;startArrow=classic;startFill=1;" edge="1" parent="1" source="CuhgKTcSQCLsUfkfb_bn-2" target="CuhgKTcSQCLsUfkfb_bn-4">
          <mxGeometry relative="1" as="geometry" />
        </mxCell>
        <mxCell id="CuhgKTcSQCLsUfkfb_bn-2" value="&lt;font style=&quot;font-size: 18px;&quot;&gt;角色&lt;/font&gt;" style="ellipse;whiteSpace=wrap;html=1;aspect=fixed;" vertex="1" parent="1">
          <mxGeometry x="346" y="252" width="80" height="80" as="geometry" />
        </mxCell>
        <mxCell id="CuhgKTcSQCLsUfkfb_bn-3" value="&lt;font style=&quot;font-size: 18px;&quot;&gt;会话&lt;/font&gt;" style="ellipse;whiteSpace=wrap;html=1;aspect=fixed;" vertex="1" parent="1">
          <mxGeometry x="232" y="415" width="80" height="80" as="geometry" />
        </mxCell>
        <mxCell id="CuhgKTcSQCLsUfkfb_bn-4" value="" style="ellipse;whiteSpace=wrap;html=1;" vertex="1" parent="1">
          <mxGeometry x="558" y="203.5" width="320" height="177" as="geometry" />
        </mxCell>
        <mxCell id="CuhgKTcSQCLsUfkfb_bn-8" style="edgeStyle=orthogonalEdgeStyle;rounded=0;orthogonalLoop=1;jettySize=auto;html=1;exitX=1;exitY=0.5;exitDx=0;exitDy=0;" edge="1" parent="1" source="CuhgKTcSQCLsUfkfb_bn-5" target="CuhgKTcSQCLsUfkfb_bn-6">
          <mxGeometry relative="1" as="geometry" />
        </mxCell>
        <mxCell id="CuhgKTcSQCLsUfkfb_bn-5" value="&lt;font style=&quot;font-size: 18px;&quot;&gt;操作&lt;/font&gt;" style="ellipse;whiteSpace=wrap;html=1;aspect=fixed;" vertex="1" parent="1">
          <mxGeometry x="608" y="252" width="80" height="80" as="geometry" />
        </mxCell>
        <mxCell id="CuhgKTcSQCLsUfkfb_bn-9" style="edgeStyle=orthogonalEdgeStyle;rounded=0;orthogonalLoop=1;jettySize=auto;html=1;exitX=0;exitY=0.5;exitDx=0;exitDy=0;entryX=1;entryY=0.5;entryDx=0;entryDy=0;" edge="1" parent="1" source="CuhgKTcSQCLsUfkfb_bn-6" target="CuhgKTcSQCLsUfkfb_bn-5">
          <mxGeometry relative="1" as="geometry" />
        </mxCell>
        <mxCell id="CuhgKTcSQCLsUfkfb_bn-6" value="&lt;font style=&quot;font-size: 18px;&quot;&gt;控制对象&lt;/font&gt;" style="ellipse;whiteSpace=wrap;html=1;aspect=fixed;" vertex="1" parent="1">
          <mxGeometry x="768" y="252" width="80" height="80" as="geometry" />
        </mxCell>
        <mxCell id="CuhgKTcSQCLsUfkfb_bn-13" value="&lt;font style=&quot;font-size: 18px;&quot;&gt;用户角色分配&lt;br&gt;UA&lt;/font&gt;" style="text;html=1;align=center;verticalAlign=middle;resizable=0;points=[];autosize=1;strokeColor=none;fillColor=none;" vertex="1" parent="1">
          <mxGeometry x="220" y="210" width="126" height="55" as="geometry" />
        </mxCell>
        <mxCell id="CuhgKTcSQCLsUfkfb_bn-14" value="&lt;font style=&quot;font-size: 18px;&quot;&gt;session&lt;br&gt;激活的角色&lt;/font&gt;" style="text;html=1;align=center;verticalAlign=middle;resizable=0;points=[];autosize=1;strokeColor=none;fillColor=none;" vertex="1" parent="1">
          <mxGeometry x="348" y="369" width="108" height="55" as="geometry" />
        </mxCell>
        <mxCell id="CuhgKTcSQCLsUfkfb_bn-15" value="&lt;span style=&quot;font-size: 18px;&quot;&gt;与用户相联系&lt;br&gt;的会话集合&lt;/span&gt;" style="text;html=1;align=center;verticalAlign=middle;resizable=0;points=[];autosize=1;strokeColor=none;fillColor=none;" vertex="1" parent="1">
          <mxGeometry x="79" y="369" width="126" height="55" as="geometry" />
        </mxCell>
        <mxCell id="CuhgKTcSQCLsUfkfb_bn-18" value="&lt;font style=&quot;font-size: 18px;&quot;&gt;角色许可分配&lt;br&gt;PA&lt;/font&gt;" style="text;html=1;align=center;verticalAlign=middle;resizable=0;points=[];autosize=1;strokeColor=none;fillColor=none;" vertex="1" parent="1">
          <mxGeometry x="426" y="210" width="126" height="55" as="geometry" />
        </mxCell>
        <mxCell id="CuhgKTcSQCLsUfkfb_bn-19" value="&lt;span style=&quot;font-size: 18px;&quot;&gt;许可&lt;br&gt;PERM&lt;/span&gt;" style="text;html=1;align=center;verticalAlign=middle;resizable=0;points=[];autosize=1;strokeColor=none;fillColor=none;" vertex="1" parent="1">
          <mxGeometry x="696" y="314" width="70" height="55" as="geometry" />
        </mxCell>
      </root>
    </mxGraphModel>
  </diagram>
</mxfile>
